# xmcd
#
# Track frame offsets:
#	150
#	18262
#	63450
#	77491
#	101985
#	121081
#	144837
#	168918
#	203492
#	225463
#	241738
#	255738
#	278406
#	303347
#	321368
#	329121
#	332426
#
# Disc length: 4752 seconds
#
# Revision: 0
# Processed by: cddbd v1.5.2PL0 Copyright (c) Steve Scherf et al.
# Submitted via: EasyCDDAExtractor 8.2.3.1
#
DISCID=da128e11
DTITLE=Various Artist - Blues Instrumental   CD-3   
DYEAR=2003
DGENRE=Blues
TTITLE0=VAN WILKS - Valley of Fires
TTITLE1=MELVIN TAYLOR - Chitlins Con Carne
TTITLE2=ERIC JERARDI - Glimpse Beyond Reality
TTITLE3=VARGAS BLUES BAND - Buenos Aires Blues
TTITLE4=JIMMY THACKERY - Sinner Street
TTITLE5=JAN AKKERMAN - Virgin Mary
TTITLE6=ROBBEN FORD - Indianola
TTITLE7=JEFF GOLUB - Paradise Lost
TTITLE8=ELLIOTT SHARP - Close to Me
TTITLE9=SNOWY WHITE - Softly
TTITLE10=SEAN CHAMBERS - Dixie 45
TTITLE11=JIMMY THACKERY - Blues for Dawn
TTITLE12=JAN AKKERMAN - Key to the Highway
TTITLE13=GREGG ROLIE - Domingo
TTITLE14=BOBBY MANRIQUES - Smokehouse (part1)
TTITLE15=BOBBY MANRIQUES - Smokehouse (part2)
TTITLE16=WES JEANS - Stratus
EXTD=
EXTT0=
EXTT1=
EXTT2=
EXTT3=
EXTT4=
EXTT5=
EXTT6=
EXTT7=
EXTT8=
EXTT9=
EXTT10=
EXTT11=
EXTT12=
EXTT13=
EXTT14=
EXTT15=
EXTT16=
PLAYORDER=
